# xmcd CD database file
#
# Track frame offsets:
#	150
#	22306
#	31344
#	54639
#	69155
#	79057
#	96422
#	113321
#	128142
#	156548
#	171578
#	188224
#	204578
#	226181
#	242040
#	254729
#	270389
#	285402
#	310669
#	330021
#	342590
#
# Disc length: 4794 seconds
#
# Revision: 0
# Processed by: cddbd v1.5.2PL0 Copyright (c) Steve Scherf et al.
# Submitted via: CDex 1.70beta2
#
DISCID=2912b815
DTITLE=Various Artist - Bluesnews Collection 6
DYEAR=2011
DGENRE=Blues
TTITLE0=Walt's Blues Box - Drivin' Home
TTITLE1=Kuddel Renner And His Amazing Blues Orchestra - Lay Down
TTITLE2=Harp Mitch and The Bluescasters - Walk With Me Baby
TTITLE3=Cajun Roosters - Horse With No Shoes
TTITLE4=3 Dayz Whizkey - 3 Dayz Whizkey
TTITLE5=Feelin' Good Bluesband - Walking The Dog
TTITLE6=Bluesgangsters - Bloody Lips
TTITLE7=Dieter Kropp - Zentrale Tanzschaffe
TTITLE8=Herr Markus and die Veteranen - Moment
TTITLE9=strongT - Life Change
TTITLE10=Schwarzbrenner - Sturm
TTITLE11=Pascal Geiser - First Time I Felt The Blues
TTITLE12=Crazy Hambones - Got A Hole In The Roll
TTITLE13=Doc Nice and Muddy Feet - Snake Dance
TTITLE14=McEbel-One-Man-Bluesband - Some Outside Help
TTITLE15=It's M.E. - Dirty Girl
TTITLE16=Frank Born With Professor Bottleneck and The Juke Kings - That's It
TTITLE17=Lanko - Mean Devil Blues
TTITLE18=Chicago Line - 24 Hours
TTITLE19=Red Bananas Blues Band - Laisse Moi
TTITLE20=X-Point feat. Bernd Dahlmanns - Desperado
EXTD=YEAR: 2011
EXTT0=
EXTT1=
EXTT2=
EXTT3=
EXTT4=
EXTT5=
EXTT6=
EXTT7=
EXTT8=
EXTT9=
EXTT10=
EXTT11=
EXTT12=
EXTT13=
EXTT14=
EXTT15=
EXTT16=
EXTT17=
EXTT18=
EXTT19=
EXTT20=
PLAYORDER=
